<mxfile host="app.diagrams.net" modified="2024-03-20T12:25:15.986Z" agent="Mozilla/5.0 (Windows NT 10.0; Win64; x64; rv:123.0) Gecko/20100101 Firefox/123.0" version="24.0.7" etag="I2DwiwXUcamU7H8OHO_Y" type="github">
  <diagram name="Page-1" id="Y4Ag6HxZdjuRDHcRlTQx">
    <mxGraphModel>
      <root>
        <mxCell id="0" />
        <mxCell id="1" parent="0" />
      </root>
    </mxGraphModel>
  </diagram>
</mxfile>
